HIERARCHY
ROOT SpineBase
{
  OFFSET 0.000000 0.000000 0.000000
  CHANNELS 6 Xposition Yposition Zposition Zrotation Xrotation Yrotation
  JOINT SpineMid
  {
    OFFSET 0.000000 31.461500 0.000000
    CHANNELS 3 Zrotation Xrotation Yrotation
    JOINT SpineShoulder
    {
      OFFSET -0.187397 23.285874 -0.817235
      CHANNELS 3 Zrotation Xrotation Yrotation
      JOINT Neck
      {
        OFFSET -0.151343 7.672676 -0.612226
        CHANNELS 3 Zrotation Xrotation Yrotation
        JOINT Head
        {
          OFFSET -3.466671 12.148792 2.953855
          CHANNELS 3 Zrotation Xrotation Yrotation
          End Site
          {
            OFFSET 0 0 0
          }
        }
      }
      JOINT ShoulderLeft
      {
        OFFSET -12.251439 -4.401798 11.121018
        CHANNELS 3 Zrotation Xrotation Yrotation
        JOINT ElbowLeft
        {
          OFFSET -1.126076 -25.890823 3.521905
          CHANNELS 3 Zrotation Xrotation Yrotation
          JOINT WristLeft
          {
            OFFSET -4.836043 -22.983786 0.169135
            CHANNELS 3 Zrotation Xrotation Yrotation
            JOINT HandLeft
            {
              OFFSET -3.352918 -4.828414 -1.330048
              CHANNELS 3 Zrotation Xrotation Yrotation
              JOINT HandTipLeft
              {
                OFFSET -0.413902 -5.731331 -1.324063
                CHANNELS 3 Zrotation Xrotation Yrotation
                End Site
                {
                  OFFSET 0 0 0
                }
              }
              JOINT ThumbLeft
              {
                OFFSET -1.685622 1.258755 -2.183759
                CHANNELS 3 Zrotation Xrotation Yrotation
                End Site
                {
                  OFFSET 0 0 0
                }
              }
            }
          }
        }
      }
      JOINT ShoulderRight
      {
        OFFSET 9.066070 -4.051512 -11.233743
        CHANNELS 3 Zrotation Xrotation Yrotation
        JOINT ElbowRight
        {
          OFFSET 6.956951 -25.401444 -3.538615
          CHANNELS 3 Zrotation Xrotation Yrotation
          JOINT WristRight
          {
            OFFSET 0.073468 -23.593201 -8.938166
            CHANNELS 3 Zrotation Xrotation Yrotation
            JOINT HandRight
            {
              OFFSET -1.840252 -5.301468 -2.761630
              CHANNELS 3 Zrotation Xrotation Yrotation
              JOINT HandTipRight
              {
                OFFSET 0.086470 -5.775109 -1.581905
                CHANNELS 3 Zrotation Xrotation Yrotation
                End Site
                {
                  OFFSET 0 0 0
                }
              }
              JOINT ThumbRight
              {
                OFFSET -2.232189 -0.682158 -0.631899
                CHANNELS 3 Zrotation Xrotation Yrotation
                End Site
                {
                  OFFSET 0 0 0
                }
              }
            }
          }
        }
      }
    }
  }
  JOINT HipLeft
  {
    OFFSET -5.294850 -0.618095 0.623109
    CHANNELS 3 Zrotation Xrotation Yrotation
    JOINT KneeLeft
    {
      OFFSET 4.808184 -35.346382 3.906341
      CHANNELS 3 Zrotation Xrotation Yrotation
      JOINT AnkleLeft
      {
        OFFSET 9.896432 -38.238179 6.878198
        CHANNELS 3 Zrotation Xrotation Yrotation
        JOINT FootLeft
        {
          OFFSET -2.892191 -7.818451 -3.498011
          CHANNELS 3 Zrotation Xrotation Yrotation
          End Site
          {
            OFFSET 0 0 0
          }
        }
      }
    }
  }
  JOINT HipRight
  {
    OFFSET 3.508562 1.452620 -8.157513
    CHANNELS 3 Zrotation Xrotation Yrotation
    JOINT KneeRight
    {
      OFFSET 7.331794 -34.169368 -4.314772
      CHANNELS 3 Zrotation Xrotation Yrotation
      JOINT AnkleRight
      {
        OFFSET 9.809107 -39.074264 6.021975
        CHANNELS 3 Zrotation Xrotation Yrotation
        JOINT FootRight
        {
          OFFSET -7.799481 -3.831423 -10.115277
          CHANNELS 3 Zrotation Xrotation Yrotation
          End Site
          {
            OFFSET 0 0 0
          }
        }
      }
    }
  }
}
MOTION
Frames: 12
Frame Time: 0.033333
103.287751 82.814271 422.930260 -0.000000 0.000000 44.925737 -0.000000 0.000000 -44.925737 -0.000000 0.000000 0.000000 -0.000000 0.000000 0.000000 0.000000 0.000000 0.000000 -0.000000 0.000000 0.000000 -0.000000 0.000000 0.000000 -0.000000 0.000000 0.000000 -0.000000 0.000000 0.000000 0.000000 0.000000 0.000000 0.000000 0.000000 0.000000 -0.000000 0.000000 0.000000 -0.000000 0.000000 0.000000 -0.000000 0.000000 0.000000 -0.000000 0.000000 0.000000 0.000000 0.000000 0.000000 0.000000 0.000000 0.000000 -0.000000 0.000000 -44.925737 -0.000000 0.000000 0.000000 -0.000000 0.000000 0.000000 0.000000 0.000000 0.000000 -0.000000 0.000000 -44.925737 -0.000000 0.000000 0.000000 -0.000000 0.000000 0.000000 0.000000 0.000000 0.000000
103.289500 82.847009 422.931359 0.018914 -0.024268 45.078307 0.003828 0.030529 -45.078304 -0.000000 0.000000 0.000000 -0.000000 0.000000 0.000000 0.000000 0.000000 0.000000 -0.000000 0.000000 0.000000 -0.444761 1.085554 -0.227309 4.466862 -2.259035 0.070732 -5.674245 -0.304077 0.828120 0.000000 0.000000 0.000000 0.000000 0.000000 0.000000 -0.000000 0.000000 0.000000 -0.000000 0.000000 0.000000 1.400528 -1.314563 -0.259850 -2.727225 0.768344 0.670854 0.000000 0.000000 0.000000 0.000000 0.000000 0.000000 0.003828 0.030529 -45.078304 -0.000000 0.000000 0.000000 -0.000000 0.000000 0.000000 0.000000 0.000000 0.000000 0.003828 0.030529 -45.078304 -0.000000 0.000000 0.000000 -0.000000 0.000000 0.000000 0.000000 0.000000 0.000000
103.288910 82.879783 422.933553 0.036712 -0.047112 45.209483 0.007570 0.059245 -45.209472 -0.000000 0.000000 0.000000 -0.000000 0.000000 0.000000 0.000000 0.000000 0.000000 -0.000000 0.000000 0.000000 -0.607824 1.834328 -0.380357 7.894651 -4.062441 0.358067 -10.413415 -0.315768 1.531668 0.000000 0.000000 0.000000 0.000000 0.000000 0.000000 -0.000000 0.000000 0.000000 -0.000000 0.000000 0.000000 2.692344 -2.457303 -0.501574 -5.059490 1.461502 1.328677 0.000000 0.000000 0.000000 0.000000 0.000000 0.000000 0.007570 0.059245 -45.209472 -0.000000 0.000000 0.000000 -0.000000 0.000000 0.000000 0.000000 0.000000 0.000000 0.007570 0.059245 -45.209472 -0.000000 0.000000 0.000000 -0.000000 0.000000 0.000000 0.000000 0.000000 0.000000
103.285983 82.912593 422.936841 0.053390 -0.068526 45.319290 0.011183 0.086147 -45.319267 -0.000000 0.000000 0.000000 0.782780 0.569469 -0.031618 0.000000 0.000000 0.000000 -0.000000 0.000000 0.000000 -0.483243 2.224010 -0.461845 10.506618 -5.459954 0.728313 -14.423405 0.121033 2.110375 0.000000 0.000000 0.000000 0.000000 0.000000 0.000000 -0.000000 0.000000 0.000000 -0.000000 0.000000 0.000000 3.887553 -3.439498 -0.734970 -7.002348 2.103233 1.943950 0.000000 0.000000 0.000000 0.000000 0.000000 0.000000 0.011183 0.086147 -45.319267 -0.000000 0.000000 0.000000 -0.000000 0.000000 0.000000 0.000000 0.000000 0.000000 0.011183 0.086147 -45.319267 -0.000000 0.000000 0.000000 -0.000000 0.000000 0.000000 0.000000 0.000000 0.000000
103.280718 82.945438 422.941223 0.068943 -0.088506 45.407739 0.014625 0.111232 -45.407699 -0.000000 0.000000 0.000000 0.963066 0.698612 -0.040527 0.000000 0.000000 0.000000 0.030228 0.966626 -0.038230 -0.105530 1.280007 -0.435407 12.463617 -6.511222 1.109087 -17.841864 1.138980 2.568310 0.000000 0.000000 0.000000 0.000000 0.000000 0.000000 -0.000000 0.000000 0.000000 -0.000000 0.000000 0.000000 4.996920 -4.271063 -0.968378 -8.561212 2.716089 2.493471 0.000000 0.000000 0.000000 0.000000 0.000000 0.000000 0.014625 0.111232 -45.407699 -0.000000 0.000000 0.000000 -0.000000 0.000000 0.000000 0.000000 0.000000 0.000000 0.014625 0.111232 -45.407699 -0.000000 0.000000 0.000000 -0.000000 0.000000 0.000000 0.000000 0.000000 0.000000
103.273116 82.978319 422.946700 0.083369 -0.107046 45.474819 0.017858 0.134500 -45.474762 -0.000000 0.000000 0.000000 1.103292 0.797649 -0.048115 0.000000 0.000000 0.000000 0.105042 1.333733 -0.045018 0.499949 0.575660 -0.351165 13.897326 -7.285636 1.474623 -20.765819 2.854378 2.906381 0.000000 0.000000 0.000000 0.000000 0.000000 0.000000 -0.000000 0.000000 0.000000 -0.000000 0.000000 0.000000 6.030053 -4.960371 -1.209051 -9.740583 3.320512 2.958954 0.000000 0.000000 0.000000 0.000000 0.000000 0.000000 0.017858 0.134500 -45.474762 -0.000000 0.000000 0.000000 -0.000000 0.000000 0.000000 0.000000 0.000000 0.000000 0.017858 0.134500 -45.474762 -0.000000 0.000000 0.000000 -0.000000 0.000000 0.000000 0.000000 0.000000 0.000000
103.269518 83.012221 422.941731 0.098638 -0.116303 45.542510 0.013929 0.151861 -45.542428 -0.000000 0.000000 0.000000 1.153431 0.822205 -0.053861 0.000000 0.000000 0.000000 0.227300 1.727329 -0.047742 1.496203 -1.116017 -0.032325 13.547972 -5.546384 0.159699 -22.970146 5.044929 3.789951 0.000000 0.000000 0.000000 0.000000 0.000000 0.000000 -0.000000 0.000000 0.000000 -0.749793 0.255368 0.286289 7.461130 -6.193537 -1.422904 -8.972149 4.097682 2.603303 0.000000 0.000000 0.000000 0.000000 0.000000 0.000000 0.013929 0.151861 -45.542428 -0.000000 0.000000 0.000000 -0.287720 0.787528 -0.159981 0.000000 0.000000 0.000000 0.013929 0.151861 -45.542428 -0.000000 0.000000 0.000000 -0.000000 0.000000 0.000000 0.000000 0.000000 0.000000
103.268523 83.041756 422.928371 0.127103 -0.099686 45.506402 -0.017969 0.160529 -45.506267 -0.000000 0.000000 0.000000 1.197787 0.851861 -0.056789 0.000000 0.000000 0.000000 0.348617 2.100116 -0.050451 2.682971 -2.633966 0.299296 14.406012 -6.668056 1.115195 -26.070474 9.882941 3.839284 0.000000 0.000000 0.000000 0.000000 0.000000 0.000000 0.800902 0.286994 -0.034898 -0.800737 -0.287454 0.030884 7.647905 -6.025172 -1.572889 -9.417638 4.404276 2.935616 0.000000 0.000000 0.000000 0.000000 0.000000 0.000000 -0.017969 0.160529 -45.506267 -0.000000 0.000000 0.000000 -0.000000 0.000000 0.000000 0.000000 0.000000 0.000000 -0.017969 0.160529 -45.506267 -0.000000 0.000000 0.000000 -0.000000 0.000000 0.000000 0.000000 0.000000 0.000000
103.245232 83.076866 422.954882 0.130329 -0.136038 45.502868 0.005689 0.188307 -45.502722 -0.000000 0.000000 0.000000 1.274029 0.901233 -0.062310 0.000000 0.000000 0.000000 0.505328 2.653401 -0.058585 3.873129 -4.070184 0.627470 16.012340 -9.056524 3.158392 -26.320964 13.022054 2.424663 0.000000 0.000000 0.000000 0.000000 0.000000 0.000000 0.845754 0.245659 -0.052233 -0.845538 -0.246403 0.048602 8.472095 -6.607061 -1.731892 -9.585086 4.988140 3.020093 0.000000 0.000000 0.000000 0.000000 0.000000 0.000000 0.005689 0.188307 -45.502722 -0.000000 0.000000 0.000000 -0.000000 0.000000 0.000000 0.000000 0.000000 0.000000 0.005689 0.188307 -45.502722 -0.000000 0.000000 0.000000 -0.000000 0.000000 0.000000 0.000000 0.000000 0.000000
103.208067 83.115934 422.990815 0.122385 -0.196018 45.527543 0.054137 0.224656 -45.527439 -0.000000 0.000000 0.000000 1.307202 0.981996 -0.048570 0.000000 0.000000 0.000000 0.655438 3.197328 -0.068509 5.057718 -5.589569 1.026057 19.134067 -12.105115 5.934755 -25.616694 20.162024 -0.309884 0.000000 0.000000 0.000000 0.000000 0.000000 0.000000 0.856729 0.131626 -0.084100 -0.856537 -0.132868 0.082123 9.349460 -6.340888 -2.289565 -9.879077 3.828120 3.390522 0.000000 0.000000 0.000000 0.000000 0.000000 0.000000 0.054137 0.224656 -45.527439 -0.000000 0.000000 0.000000 -0.000000 0.000000 0.000000 0.000000 0.000000 0.000000 0.054137 0.224656 -45.527439 -0.000000 0.000000 0.000000 -0.000000 0.000000 0.000000 0.000000 0.000000 0.000000
103.158154 83.152190 423.071885 0.102335 -0.288951 45.508027 0.134406 0.275500 -45.508092 -0.000000 0.000000 0.000000 1.313247 1.016475 -0.040686 0.000000 0.000000 0.000000 0.770947 3.711392 -0.081968 6.159288 -6.871669 1.405659 21.782639 -12.750465 6.229311 -26.649487 22.064988 -1.042440 0.000000 0.000000 0.000000 0.000000 0.000000 0.000000 0.833321 -0.030412 -0.123956 -0.833385 0.028606 0.124385 10.638572 -7.328440 -2.490411 -11.526890 4.532542 4.019343 0.000000 0.000000 0.000000 0.000000 0.000000 0.000000 0.134406 0.275500 -45.508092 -0.000000 0.000000 0.000000 -0.924213 0.322078 0.295706 0.000000 0.000000 0.000000 0.134406 0.275500 -45.508092 -0.000000 0.000000 0.000000 -0.000000 0.000000 0.000000 0.000000 0.000000 0.000000
103.108440 83.179594 423.180443 0.082192 -0.397128 45.520495 0.225765 0.336893 -45.520874 -0.000000 0.000000 0.000000 1.344346 1.047918 -0.039918 0.000000 0.000000 0.000000 0.837537 4.081082 -0.093970 7.234203 -7.787730 1.735137 23.738345 -14.112049 7.585964 -24.187117 21.117865 -3.625433 0.000000 0.000000 0.000000 0.000000 0.000000 0.000000 0.795278 -0.177353 -0.157866 -0.795767 0.175144 0.160314 11.018733 -5.854526 -3.359488 -12.618992 1.093938 4.865621 0.000000 0.000000 0.000000 0.000000 0.000000 0.000000 0.225765 0.336893 -45.520874 -0.000000 0.000000 0.000000 -0.000000 0.000000 0.000000 0.000000 0.000000 0.000000 0.225765 0.336893 -45.520874 -0.000000 0.000000 0.000000 -0.000000 0.000000 0.000000 0.000000 0.000000 0.000000
